<?xml version="1.0" standalone="no"?>
<!DOCTYPE svg PUBLIC "-//W3C//DTD SVG 20010904//EN"
 "http://www.w3.org/TR/2001/REC-SVG-20010904/DTD/svg10.dtd">
<svg version="1.0" xmlns="http://www.w3.org/2000/svg"
 width="250.000000pt" height="200.000000pt" viewBox="0 0 400.000000 150.000000"
 preserveAspectRatio="xMidYMid meet">

<g transform="translate(0.000000,213.000000) scale(0.100000,-0.100000)"
fill="#000000" stroke="none">
<path d="M177 2106 c-69 -25 -113 -62 -141 -117 l-26 -53 0 -790 c0 -745 2
-793 19 -831 21 -47 71 -99 112 -115 37 -16 30 -26 -23 -34 -24 -4 -60 -11
-81 -17 -35 -9 -37 -12 -37 -49 0 -39 1 -40 52 -54 145 -41 240 -46 927 -46
690 0 756 3 927 46 63 16 64 17 64 50 0 39 -15 48 -110 66 -85 15 -89 18 -50
34 45 19 86 59 113 109 l22 40 0 800 c0 761 -1 802 -19 835 -26 49 -64 88
-111 113 -40 22 -42 22 -820 24 -639 2 -787 0 -818 -11z m1638 -51 c36 -22 57
-45 77 -84 l28 -54 -2 -781 -3 -781 -24 -42 c-31 -55 -83 -90 -149 -103 -33
-6 -328 -8 -802 -5 -717 4 -751 5 -787 24 -48 24 -78 56 -98 103 -13 33 -15
136 -15 818 0 761 1 782 20 820 24 47 76 91 127 107 28 9 237 11 809 10 l771
-2 48 -30z m-1152 -1925 l-42 -40 -146 0 -145 0 0 40 0 40 188 0 187 -1 -42
-39z m965 3 l-3 -38 -145 -3 -145 -3 -40 41 -39 40 188 0 187 0 -3 -37z"/>
<path d="M505 1981 c-132 -31 -246 -60 -254 -65 -27 -17 -41 -75 -41 -172 0
-90 -2 -98 -25 -120 -23 -21 -25 -30 -25 -109 0 -78 2 -88 25 -111 l25 -25 0
-234 0 -234 -25 -25 c-23 -23 -25 -33 -25 -111 0 -78 2 -88 25 -111 23 -23 25
-32 25 -120 0 -105 15 -153 53 -172 53 -27 477 -122 543 -122 46 0 59 4 79 26
13 14 25 38 27 52 2 21 10 28 38 35 19 5 190 11 380 13 223 3 353 9 367 16 40
20 53 66 53 185 l0 108 63 24 c111 43 109 38 48 198 -57 151 -74 183 -96 183
-13 0 -15 50 -15 364 0 203 -4 376 -9 389 -6 14 -20 35 -32 46 -22 20 -32 21
-328 21 -344 0 -471 12 -471 43 0 23 -18 58 -39 74 -30 23 -126 11 -366 -46z
m285 9 c20 -20 20 -33 20 -842 0 -750 -1 -823 -17 -840 -9 -10 -27 -18 -41
-18 -55 0 -467 103 -487 122 -17 16 -20 34 -23 127 -4 102 -2 110 17 121 19
10 21 19 21 115 0 94 -2 106 -20 117 -19 12 -20 24 -20 253 0 229 1 241 20
253 18 11 20 23 20 112 0 88 -2 102 -20 117 -18 15 -20 30 -20 119 0 146 -13
137 271 205 129 31 240 57 247 58 6 1 21 -8 32 -19z m74 -2 c14 -20 16 -117
16 -845 0 -810 0 -823 -20 -843 -26 -26 -44 -27 -30 -1 14 27 14 1665 0 1692
-15 28 14 25 34 -3z m179 -120 c14 -17 17 -41 17 -154 l0 -134 -35 0 c-70 0
-110 -77 -67 -130 11 -13 33 -23 60 -27 l42 -6 0 -278 0 -279 -37 0 c-63 0
-100 -55 -77 -115 8 -20 56 -45 89 -45 l25 0 0 -128 c0 -91 -4 -133 -13 -146
-13 -18 -111 -41 -129 -30 -10 6 -11 1487 -1 1497 14 14 108 -5 126 -25z m673
-411 l7 -377 -34 -14 c-81 -33 -79 -34 -79 30 0 32 10 88 22 127 l23 69 -22
18 c-22 17 -22 24 -24 236 l-1 219 43 48 c32 37 44 45 50 35 4 -8 11 -184 15
-391z m-157 289 c8 -9 11 -73 9 -208 l-3 -195 -115 43 c-96 36 -118 41 -134
30 -10 -7 -37 -62 -61 -126 -24 -63 -48 -115 -54 -114 -6 1 -33 2 -61 3 l-50
1 0 116 0 115 35 33 c42 40 46 76 10 111 -13 14 -29 25 -35 25 -6 0 -10 34
-10 90 l0 90 229 0 c182 0 231 -3 240 -14z m-1314 -231 c0 -83 -1 -90 -20 -90
-18 0 -20 8 -23 79 -3 91 1 109 25 104 16 -3 18 -15 18 -93z m760 -10 c0 -25
-2 -45 -6 -45 -11 0 -29 25 -29 41 0 14 24 49 33 49 2 0 2 -20 2 -45z m110 20
c20 -31 2 -65 -33 -65 -49 0 -69 42 -36 75 21 20 53 16 69 -10z m316 -232 c9
-23 43 -32 54 -13 7 11 78 -15 83 -30 2 -5 11 -6 19 -3 11 5 15 2 11 -8 -69
-197 -164 -435 -169 -426 -4 7 -14 39 -23 72 -17 68 -35 85 -86 85 l-35 0 -12
74 c-12 72 -11 74 23 167 51 134 47 129 90 116 22 -7 39 -20 45 -34z m-198
-225 c27 -93 24 -98 -68 -98 l-75 0 0 85 0 86 62 -3 62 -3 19 -67z m586 -150
c29 -72 50 -135 49 -140 -5 -13 -280 -119 -294 -114 -6 2 -15 17 -18 33 -10
38 -34 63 -63 63 -29 0 -29 5 3 96 25 70 28 74 71 90 25 10 52 28 60 40 13 21
98 62 130 63 6 1 34 -58 62 -131z m-467 10 c16 -13 38 -89 38 -131 0 -33 -14
-37 -130 -37 l-99 0 -6 43 c-7 48 9 123 28 130 26 11 154 7 169 -5z m-223 -15
c0 -10 -4 -27 -9 -38 -7 -19 -9 -18 -19 8 -15 39 -14 47 9 47 13 0 20 -6 19
-17z m-881 -136 c2 -74 0 -88 -14 -94 -29 -11 -39 19 -36 106 3 78 5 82 25 79
20 -3 22 -9 25 -91z m757 8 c0 -45 -10 -53 -29 -23 -7 11 -6 24 2 42 17 38 27
32 27 -19z m111 20 c12 -18 11 -24 -2 -43 -34 -49 -103 -6 -74 47 14 28 57 25
76 -4z m92 -120 c7 -22 14 -58 15 -80 l2 -40 -67 -3 -68 -3 0 74 c0 67 2 75
23 85 12 6 36 10 52 9 25 -2 32 -8 43 -42z m69 0 c-12 -51 -17 -50 -33 6 -12
39 -12 39 16 39 27 0 27 0 17 -45z m254 -30 c13 -50 15 -73 7 -82 -13 -16
-233 -18 -243 -3 -7 11 13 114 27 143 8 15 21 17 100 15 l92 -3 17 -70z m180
-93 c1 -57 -1 -106 -5 -109 -7 -7 -59 39 -87 79 -15 21 -17 34 -11 63 6 33 13
40 52 55 25 10 46 17 47 16 1 -1 3 -48 4 -104z m-83 -85 c29 -29 49 -56 46
-60 -4 -4 -140 -7 -302 -7 -264 0 -294 2 -288 16 3 9 6 36 6 60 l0 44 243 0
243 0 52 -53z"/>
<path d="M710 1651 c-84 -17 -100 -43 -100 -158 l0 -76 -26 24 c-20 19 -36 24
-76 24 -47 0 -53 -3 -94 -48 -29 -33 -49 -67 -60 -105 -9 -31 -23 -72 -31 -90
-17 -39 -13 -128 7 -182 7 -19 19 -54 27 -77 43 -127 143 -184 221 -126 l30
22 4 -71 c3 -62 7 -73 31 -94 18 -15 41 -24 62 -24 19 0 37 -5 41 -12 5 -7 11
-5 21 7 14 20 17 62 7 89 -7 17 -34 22 -34 6 0 -5 -9 -10 -20 -10 -20 0 -20 7
-20 406 l0 406 34 -6 c26 -5 35 -3 40 10 8 20 8 58 0 78 -7 17 -10 17 -64 7z
m5 -48 c-11 -3 -28 -12 -37 -21 -17 -14 -18 -47 -18 -419 0 -260 4 -411 10
-424 6 -11 21 -19 35 -19 14 0 25 -4 25 -10 0 -13 -36 -13 -61 0 -18 10 -19
26 -19 443 0 324 3 436 12 445 7 7 26 11 43 11 21 -1 24 -3 10 -6z m-165 -178
c51 -27 60 -49 60 -161 0 -95 -1 -102 -19 -97 -11 3 -21 17 -25 35 -3 16 -19
43 -36 59 -20 20 -30 41 -30 60 0 39 -25 48 -49 18 -50 -64 -60 -73 -67 -67
-14 15 17 89 55 128 41 43 65 49 111 25z m-125 -209 c31 -47 16 -156 -23 -171
-11 -4 -25 3 -41 21 -20 24 -23 36 -19 85 2 32 10 64 17 73 19 23 48 20 66 -8z
m80 -16 c15 -28 14 -30 -4 -30 -19 0 -31 18 -31 46 0 24 19 15 35 -16z m105
-184 l0 -104 -35 -31 c-46 -40 -83 -41 -129 -1 -35 31 -75 114 -62 128 4 4 27
-15 50 -42 47 -54 66 -55 66 -2 0 24 7 38 23 49 22 14 33 34 51 90 3 9 12 17
21 17 12 0 15 -17 15 -104z m-100 80 c0 -16 -28 -42 -36 -33 -3 3 -3 15 1 26
7 23 35 29 35 7z"/>
</g>
</svg>
